<svg class="skillIcon" xmlns="http://www.w3.org/2000/svg" viewBox="0 0 50 50" width="50px" height="50px"><path fill="none" stroke="#ececec" stroke-linejoin="round" stroke-miterlimit="10" stroke-width="2" d="M6,5C5.448,5,5,5.448,5,6v38c0,0.552,0.448,1,1,1h38c0.552,0,1-0.448,1-1V6c0-0.552-0.448-1-1-1H6z"/><path fill="#ececec" d="M18.824 29.567L17.399 36H15l4.928-22h2.72l4.8 22h-2.433l-1.39-6.433L18.824 29.567zM23.323 27.001l-1.136-5.633c-.32-1.536-.608-3.328-.864-4.928h-.096c-.257 1.632-.576 3.487-.896 4.96L19.228 27 23.323 27.001 23.323 27.001zM32.701 17.125c-.824 0-1.451-.625-1.451-1.562S31.91 14 32.734 14c.923 0 1.516.626 1.516 1.563 0 .937-.593 1.562-1.516 1.562H32.701zM31.5 36V19H34v17H31.5z"/></svg>