<svg id="Lager_1" data-name="Lager 1" xmlns="http://www.w3.org/2000/svg" viewBox="0 0 1920 600"><defs><style>.cls-1{fill:#162447;}</style></defs><path class="cls-1" d="M1920,93c-152.35-80.83-411.24,5.82-545,147-67.64,71.39-92.08,144.9-171,158-92.64,15.38-125.52-74.89-244-87C817.34,296.42,782.32,418.84,653,413c-157.16-7.09-174.82-191-350-231C157.24,148.73-31.67,230.13-92,361c-79.43,172.3,71.24,414.67,229,539,143.36,113,268.62,109.61,1294,40,311.46-21.14,469-33.78,557-135C2157.26,610.36,2121.4,199.86,1920,93Z"/></svg>