<?xml version="1.0" encoding="utf-8"?>
<!-- Generator: Adobe Illustrator 24.1.1, SVG Export Plug-In . SVG Version: 6.00 Build 0)  -->
<svg version="1.1" id="Lager_1" xmlns="http://www.w3.org/2000/svg" xmlns:xlink="http://www.w3.org/1999/xlink" x="0px" y="0px"
	 viewBox="0 0 1920 600" style="enable-background:new 0 0 1920 600;" xml:space="preserve">
<style type="text/css">
	.st0{fill:#2B2B4A;}
</style>
<path class="st0" d="M1920,93c-152.3-80.8-411.2,5.8-545,147c-67.6,71.4-92.1,144.9-171,158c-92.6,15.4-125.5-74.9-244-87
	c-142.7-14.6-177.7,107.8-307,102c-157.2-7.1-174.8-191-350-231C157.2,148.7-31.7,230.1-92,361c-79.4,172.3,71.2,414.7,229,539
	c143.4,113,268.6,109.6,1294,40c311.5-21.1,469-33.8,557-135C2157.3,610.4,2121.4,199.9,1920,93z"/>
</svg>
