<svg fill="#ececec" xmlns="http://www.w3.org/2000/svg" viewBox="0 0 50 50" width="50px" height="50px"><path d="M29.4,48c-0.1,0-1.9-0.1-2.9-0.9c-1.3-1-2-2.8-2.3-5.4c-0.1-1.1-0.1-8.2-0.2-9.7c0-0.2-0.1-0.7-0.3-0.9c-0.1-0.1-1.4-0.2-1.9-0.3c-1.2-0.2-2.3-0.6-3.1-1.1c-1-0.6-1.8-1.5-2.5-2.7c-1.1-2-0.9-3.9-0.8-4.9l0.2-1.9c-0.4-2.6-0.3-5.2,0.2-7.7c0.4-2.1,0.8-4.2,2.5-6.2c1.7-2.1,3.7-3.4,6-3.8c2.4-0.5,4.4,0.2,5.6,0.6c2.4,0.8,3.9,2.1,4.6,2.7c1.6,1.3,2.4,2.6,3.9,4.9c0.3,0.4,1.4,2.6,1.3,4.4c-0.1,1.1-0.4,4.2-0.4,4.5c0,0.6,0.1,2.1,0.2,2.7c0.1,1.2,0.1,2-0.1,3c0,0-0.5,2.5-1.4,3.1l-1-1.7c0.2-0.2,0.5-1.7,0.5-1.7c0.1-0.8,0.1-1.4,0-2.5c0-0.6-0.2-2.2-0.2-3c0-0.4,0.4-3.4,0.4-4.3c0.1-1.7-0.7-2.9-0.9-3.3c-1.5-2.3-2.2-3.4-3.5-4.5c-0.6-0.5-1.9-1.6-4-2.3c-1.1-0.4-2.7-0.9-4.6-0.6c-1.8,0.3-3.4,1.4-4.8,3.1c-1.3,1.7-1.7,3.4-2.1,5.4c-0.5,2.3-0.5,4.7-0.2,7.1l-0.2,2.3c-0.1,0.8-0.2,2.2,0.5,3.7c0.4,0.8,1,1.5,1.8,1.9c0.6,0.4,1.5,0.7,2.4,0.8c0.4,0.1,2.3,0.2,2.9,0.7c0.8,0.7,0.9,1.7,1,2.1c0.2,1.6,0.1,8.8,0.2,9.8c0.1,1.4,0.5,3.2,1.6,4c0.5,0.4,1.1,0.4,1.5,0.4c1.3,0.1,3.5-0.8,4.2-1.9c0.4-0.6,0.5-1.1,0.8-2.1c0.1-0.5,0.4-3.9,0.4-4.6c0.1-1.7,0.3-3.8,0.5-4.8c0.2-1.3,0.3-2,0.9-2.7c0.5-0.5,1.1-0.7,1.5-0.8c0.1,0,1.7,1.3,1.7,1.3c-0.4,0.4-1.6,0.7-1.7,0.8c-0.2,0.2-0.3,0.5-0.4,1.6c-0.1,1-0.3,3.1-0.5,4.7c-0.1,0.7-0.3,4.2-0.5,4.8c-0.2,1.1-0.4,1.9-1,2.8C34,46.8,31.2,48,29.4,48z"/><path d="M39.4 34.4c-1.4 0-2.9-.5-3.3-.6l.7-1.9c.9.3 2.2.6 3.2.5 1.3-.2 2.2-.7 2.5-1 0 0 0 0 0 0-1.8.2-2.3.2-2.9 0-1.2-.4-2.9-1.9-3.9-3.9-.6-1.1-1.2-2.7-1.8-4.2-1.5-3.4-1.7-4.4-1.7-5.2-.1-1.1-.2-2.6 1-3.6 1-.9 2.8-1.8 5.7-1l-.5 1.9-.1 0c-1.6-.5-2.8-.3-3.7.5C34 16.3 34 17.2 34 17.9c0 .5.1 1.2 1.6 4.6.7 1.6 1.3 3.1 1.8 4.2.9 1.8 2.2 2.7 2.7 2.9.2.1 2.6-.2 2.6-.2 1.5-.2 2.1-.2 2.5.5.7 1.2-.9 2.6-1.7 3.2C43.1 33.3 41 34.4 39.4 34.4zM20.2 36.7c-.7 0-1.6-.1-2.4-.5-1-.4-2.2-1.2-2-2.2.2-.8.9-1 1.6-1.2.2 0 .3-.1.5-.1.9-.2 1.8-.5 2.5-1 .4-.3.8-.8 1-1.4l1.9.7c-.4 1-1 1.8-1.7 2.3-.8.6-1.8.9-2.8 1.2 1.2.4 2.4.2 2.8 0 .3-.1 1.8-.7 2.6-1.8l1.6 1.2c-1.2 1.5-3 2.3-3.6 2.5C21.8 36.5 21.1 36.7 20.2 36.7zM21.5 29.7c0-.7 0-1.4.1-2.1.2-.9.4-1.4.6-1.9.1-.3.3-.6.4-1 .8-2.2.6-5.5.1-7.7 0 0-.2-1-1-1.4-.7-.4-1.6-.1-2.4.1-1.1.3-1.8.9-2.3 1.4l-1.4-1.4c.9-.9 2-1.6 3.1-1.9.9-.3 2.5-.8 4 .1 1.4.9 1.8 2.5 1.9 2.7.5 2.3.7 6-.2 8.8-.2.5-.4.9-.5 1.2-.2.5-.4.8-.5 1.4-.1.5-.1 1.1-.1 1.6L21.5 29.7z"/><path d="M39.3 29.5l-1.6-1.1c.6-.8 1.1-1.7 1.6-2.5 1.2-2.1 1.8-3.8 2.3-5.2.9-2.5 1.3-4.3 1.7-5.7.7-2.9.6-4 .5-5.1-.2-1.9-2.7-3.9-3.8-4.5C39.1 5 37.4 4 34.9 4c-2 0-3.8.7-4.7 1.1l-.8-1.8C30.6 2.7 32.6 2 34.9 2c3 0 5 1.2 5.8 1.6 1.2.7 4.1 3.1 4.9 5.9.4 1.6.2 3-.5 6-.3 1.4-.8 3.4-1.7 5.9-.5 1.4-1.2 3.2-2.4 5.5C40.4 27.7 39.9 28.6 39.3 29.5zM12.8 35.7c-1 0-1.8-.6-2.6-1.6-1.2-1.4-1.8-2.9-2.1-3.7-1.5-4.4-2-6-2.1-6.3-.9-3.3-1.3-4.9-1.6-7.3-.5-3.5-.5-5.2-.2-6.7.3-1.7 1-3.1 1.7-4.2 1.9-2.8 7.2-3.4 8.5-3.3 2.2.1 4.3.7 6.3 1.7l-.9 1.8c-1.8-.9-3.6-1.4-5.5-1.5-1.2-.1-5.4.3-6.8 2.5-.5.8-1 1.9-1.3 3.3-.3 1.3-.3 2.9.2 6.1.4 2.3.8 3.9 1.6 7.1.1.3.8 2.6 2 6.2.2.5.6 1.8 1.7 3 .6.7 1 .9 1.1.9.4 0 .9-.5 1.5-1.2 1.2-1.3 2.4-2.7 3.5-4.2l1.6 1.2c-1.2 1.5-2.4 3-3.6 4.3C15 34.8 14.1 35.7 12.8 35.7z"/><path fill="#000000" d="M34.6 16.5c.1-.2.2-.2.6-.3.3-.1 1.1-.2 1.3 0 .3.2-.1.7-.2.8-.1.1-.3.3-.6.4-.4.1-.7-.2-.8-.2C34.8 17 34.5 16.7 34.6 16.5zM22.4 17.4c-.1-.2-.3-.3-.6-.4-.3-.1-.8-.3-1.2-.1-.1 0-.3.1-.4.3-.1.2 0 .4.1.5.2.3.5.6 1 .6.1 0 .5 0 .8-.3C22.1 18 22.4 17.7 22.4 17.4z"/></svg>