<svg fill="#ececec" xmlns="http://www.w3.org/2000/svg" viewBox="0 0 50 50" width="50px" height="50px"><path fill="none" stroke="#ececec" stroke-linejoin="round" stroke-miterlimit="10" stroke-width="2" d="M6,5C5.448,5,5,5.448,5,6v38c0,0.552,0.448,1,1,1h38c0.552,0,1-0.448,1-1V6c0-0.552-0.448-1-1-1H6z"/><path d="M15.001 14.416C15.993 14.16 17.145 14 18.585 14c1.983 0 3.68.479 4.8 1.567 1.023 1.024 1.567 2.592 1.567 4.479 0 1.984-.479 3.328-1.312 4.416-1.152 1.6-3.168 2.399-5.088 2.399-.416 0-.736 0-1.088-.031V36H15L15.001 14.416 15.001 14.416zM17.6 24.408c.288.031.576.063.992.063 2.399 0 4.031-1.6 4.031-4.64 0-2.208-.896-4.191-3.647-4.191-.576 0-1.056.063-1.376.16L17.6 24.408zM27.631 33.238c.564.353 1.56.803 2.59.803 1.428 0 2.356-.868 2.356-2.249 0-1.189-.431-2.024-2.057-3.052-2.092-1.317-3.22-2.667-3.22-4.434 0-2.538 1.925-4.306 4.416-4.306 1.262 0 2.19.386 2.854.803l-.664 1.864c-.63-.418-1.295-.707-2.158-.707-1.361 0-2.057.964-2.057 1.991 0 1.028.398 1.64 1.992 2.667C33.54 27.775 35 29.221 35 31.373 35 34.49 32.81 36 30.154 36c-1.162 0-2.457-.354-3.154-.9L27.631 33.238z"/></svg>