<svg fill="#ececec" xmlns="http://www.w3.org/2000/svg" viewBox="0 0 32 32" width="50px" height="50px"><path d="M16,3C8.828,3,3,8.828,3,16s5.828,13,13,13s13-5.828,13-13S23.172,3,16,3z M16,26.833C9.998,26.833,5.167,22.002,5.167,16 C5.167,9.998,9.998,5.167,16,5.167S26.833,9.998,26.833,16C26.833,22.002,22.002,26.833,16,26.833z"/><path d="M25.577,11.916c0,1.105-0.206,2.34-0.823,3.878l-3.304,9.566c-0.585,0.357-1.203,0.639-1.853,0.856 c-0.033-0.043-0.054-0.087-0.076-0.141l-3.337-9.132l-3.25,9.447c-0.184-0.054-0.368-0.108-0.542-0.173 c-0.379-0.141-0.748-0.293-1.116-0.466l-0.011-0.011L5.965,10.71c0.011-0.022-0.987-0.743-0.452-0.5 c0.076-0.195,0.343-0.16,0.452-0.355c0.108-0.206,0.214-0.573,0.344-0.779C6.363,8.978,6.745,9.269,6.81,9.172 c0.249,0.011,0.487,0.011,0.693,0.011c1.138,0,2.893-0.141,2.893-0.141c0.574-0.033,0.65,0.834,0.065,0.899 c0,0-0.585,0.065-1.246,0.098l4.098,12.613l2.362-7.107l-1.823-5.507c-0.585-0.033-1.138-0.098-1.138-0.098 c-0.585-0.032-0.52-0.932,0.065-0.899c0,0,1.788,0.141,2.849,0.141c1.138,0,2.893-0.141,2.893-0.141 c0.585-0.033,0.65,0.834,0.065,0.899c0,0-0.585,0.065-1.235,0.098l4.066,12.527l1.072-3.608c0.477-1.506,0.823-2.578,0.823-3.51 c0-1.332-0.477-2.264-0.888-2.979c-0.553-0.899-1.007-1.647-1.007-2.546c0-0.997,0.693-1.928,1.755-1.928 c0.054,0,0.098,0.011,0.141,0.011l0.011,0.011c0.217,0.195,1.098-0.425,1.293-0.209c0.173,0.184,0.295,0.33,0.457,0.525 c0.657,0.2,0.617,0.781,0.66,0.846c0.163,0.217,0.079,0.348,0.22,0.576c0.163,0.249-0.582,0.786-0.441,1.057 C25.555,11.157,25.577,11.515,25.577,11.916z"/></svg>